<svg xmlns="http://www.w3.org/2000/svg" fill="none" viewBox="5 8.04 29.72 22.79">
<path d="M7.63902 28.8684C5.92193 27.0456 5 24.9999 5 21.6838C5 15.8514 9.09418 10.6227 15.051 8.03857L16.5388 10.3346C10.9801 13.3423 9.89363 17.2433 9.4594 19.7033C10.3544 19.2404 11.526 19.0776 12.6745 19.1841C15.6818 19.4629 18.052 21.9316 18.052 24.9999C18.052 28.2216 15.4403 30.8333 12.2186 30.8333C10.4302 30.8333 8.71993 30.0158 7.63902 28.8684ZM24.3057 28.8684C22.5887 27.0456 21.6667 24.9999 21.6667 21.6838C21.6667 15.8514 25.7608 10.6227 31.7177 8.03857L33.2055 10.3346C27.6467 13.3423 26.5603 17.2433 26.126 19.7033C27.021 19.2404 28.1927 19.0776 29.3412 19.1841C32.3485 19.4629 34.7187 21.9316 34.7187 24.9999C34.7187 28.2216 32.107 30.8333 28.8853 30.8333C27.0968 30.8333 25.3867 30.0158 24.3057 28.8684Z" fill="#00999A"/>
</svg>