<svg width="240" height="52" viewBox="0 0 240 52" fill="none" xmlns="http://www.w3.org/2000/svg">
<path fill-rule="evenodd" clip-rule="evenodd" d="M36.5752 7.32764C38.8092 7.32764 40.6187 9.13846 40.6187 11.3711C40.6187 13.6038 38.8079 15.4146 36.5752 15.4146C34.3426 15.4146 32.5317 13.6038 32.5317 11.3711C32.5317 9.13846 34.3426 7.32764 36.5752 7.32764Z" fill="white"/>
<path fill-rule="evenodd" clip-rule="evenodd" d="M47.6757 17.2607C31.7989 21.7928 22.6617 35.3802 34.432 52C15.8528 35.9935 14.8769 15.5129 34.1058 0C30.1165 6.37313 27.6446 14.0282 29.502 16.3616C32.7156 20.3988 43.1159 17.0718 47.6757 17.262V17.2607Z" fill="white"/>
<path fill-rule="evenodd" clip-rule="evenodd" d="M44.3916 33.1098H31.3242C32.8227 27.2504 37.7868 22.6894 46.2163 19.4229C47.1091 20.0676 47.5687 20.939 47.5939 22.0371V29.9075C47.5889 31.6742 46.1583 33.1047 44.3916 33.1098Z" fill="#00999A"/>
<path fill-rule="evenodd" clip-rule="evenodd" d="M29.0335 2.45832C28.6381 2.28202 28.1999 2.18506 27.7415 2.18506H19.8711C18.1094 2.18506 16.6688 3.62566 16.6688 5.38736V18.835H3.21988C1.45818 18.835 0.0175781 20.2756 0.0175781 22.0373V29.9077C0.0175781 31.6694 1.45818 33.11 3.21988 33.11H16.6688V46.559C16.6688 48.3207 18.1094 49.7613 19.8711 49.7613H27.7415C28.2226 49.7613 28.6809 49.653 29.0914 49.4603C22.9777 43.2975 18.297 34.4751 18.297 26.2181C18.297 17.0922 22.2335 8.44611 29.0335 2.45832Z" fill="#00999A"/>
<path d="M56.7291 37.5V15.4036H60.4732L67.7772 30.0732L75.0813 15.4036H78.8254V37.5H74.9279V24.3036L68.5138 37.5H67.0407L60.6266 24.3036V37.5H56.7291ZM90.8358 37.9603C89.1376 37.9603 87.6389 37.5972 86.3398 36.8709C85.0508 36.1343 84.0381 35.1267 83.3015 33.848C82.5752 32.559 82.212 31.0859 82.212 29.4287C82.212 27.618 82.5701 26.0426 83.2862 24.7025C84.0023 23.3624 84.9894 22.3241 86.2477 21.5876C87.506 20.8408 88.9535 20.4674 90.5902 20.4674C92.3293 20.4674 93.8075 20.8766 95.0249 21.695C96.2422 22.5134 97.1424 23.6642 97.7255 25.1475C98.3086 26.6308 98.5132 28.375 98.3393 30.3801H94.2116V28.8456C94.2116 27.1577 93.9405 25.9454 93.3983 25.2089C92.8664 24.4621 91.9917 24.0887 90.7744 24.0887C89.3524 24.0887 88.3039 24.5235 87.6287 25.393C86.9638 26.2523 86.6313 27.526 86.6313 29.2139C86.6313 30.7586 86.9638 31.9555 87.6287 32.8045C88.3039 33.6434 89.2911 34.0628 90.5902 34.0628C91.4086 34.0628 92.1094 33.8838 92.6925 33.5257C93.2756 33.1677 93.7206 32.6511 94.0275 31.9759L98.2012 33.1728C97.5772 34.6868 96.59 35.8632 95.2397 36.7021C93.8996 37.5409 92.4316 37.9603 90.8358 37.9603ZM85.3424 30.3801V27.2804H96.3292V30.3801H85.3424ZM108.525 37.9603C107.001 37.9603 105.666 37.5767 104.52 36.8095C103.374 36.0423 102.479 34.9988 101.835 33.6792C101.201 32.3595 100.883 30.8711 100.883 29.2139C100.883 27.526 101.206 26.0273 101.85 24.7179C102.505 23.3982 103.42 22.3599 104.597 21.6029C105.773 20.8459 107.154 20.4674 108.74 20.4674C110.315 20.4674 111.64 20.851 112.714 21.6182C113.788 22.3855 114.602 23.4289 115.154 24.7486C115.706 26.0682 115.983 27.5566 115.983 29.2139C115.983 30.8711 115.701 32.3595 115.139 33.6792C114.586 34.9988 113.758 36.0423 112.653 36.8095C111.548 37.5767 110.172 37.9603 108.525 37.9603ZM109.2 34.2469C110.131 34.2469 110.873 34.0372 111.425 33.6178C111.988 33.1984 112.392 32.6102 112.637 31.8532C112.883 31.0961 113.006 30.2164 113.006 29.2139C113.006 28.2113 112.883 27.3316 112.637 26.5746C112.392 25.8176 111.998 25.2294 111.456 24.8099C110.924 24.3905 110.223 24.1808 109.354 24.1808C108.423 24.1808 107.656 24.411 107.052 24.8713C106.459 25.3214 106.019 25.9301 105.732 26.6973C105.446 27.4543 105.303 28.2932 105.303 29.2139C105.303 30.1448 105.441 30.9939 105.717 31.7611C105.993 32.5181 106.418 33.1216 106.991 33.5718C107.563 34.0219 108.3 34.2469 109.2 34.2469ZM113.006 37.5V26.1449H112.484V15.4036H116.688V37.5H113.006ZM121.292 18.626V14.9433H125.466V18.626H121.292ZM121.292 37.5V20.9277H125.466V37.5H121.292ZM139.273 37.9603C137.881 37.9603 136.557 37.7148 135.298 37.2238C134.04 36.7225 132.925 35.986 131.953 35.0142C130.992 34.0423 130.23 32.8403 129.667 31.4082C129.115 29.976 128.838 28.3239 128.838 26.4518C128.838 24.0069 129.304 21.9303 130.235 20.2219C131.176 18.5033 132.434 17.1939 134.009 16.2936C135.595 15.3934 137.35 14.9433 139.273 14.9433C142.117 14.9433 144.352 15.6031 145.978 16.9228C147.605 18.2424 148.694 20.1094 149.247 22.5236L144.981 23.1374C144.582 21.8484 143.927 20.8203 143.017 20.0531C142.117 19.2756 140.961 18.8818 139.549 18.8715C138.147 18.8511 136.981 19.1529 136.05 19.7769C135.119 20.4009 134.419 21.2858 133.948 22.4315C133.488 23.5773 133.258 24.9174 133.258 26.4518C133.258 27.9863 133.488 29.3162 133.948 30.4414C134.419 31.5667 135.119 32.4414 136.05 33.0654C136.981 33.6894 138.147 34.0116 139.549 34.0321C140.5 34.0526 141.36 33.8889 142.127 33.5411C142.904 33.1933 143.559 32.646 144.091 31.8992C144.623 31.1524 145.001 30.1959 145.226 29.0297H141.728V25.8073H149.676C149.697 25.9403 149.712 26.1756 149.722 26.5132C149.733 26.8508 149.738 27.0452 149.738 27.0963C149.738 29.2139 149.308 31.091 148.449 32.7278C147.59 34.3646 146.377 35.6484 144.812 36.5793C143.247 37.5 141.401 37.9603 139.273 37.9603ZM152.813 37.5V20.9277H156.496V24.9787L156.097 24.457C156.312 23.8841 156.598 23.3624 156.956 22.8919C157.314 22.4213 157.754 22.0326 158.276 21.7257C158.675 21.4801 159.11 21.2909 159.58 21.1579C160.051 21.0147 160.537 20.9277 161.038 20.897C161.539 20.8561 162.04 20.8664 162.542 20.9277V24.8253C162.081 24.6821 161.544 24.636 160.931 24.6872C160.327 24.7281 159.78 24.8662 159.289 25.1015C158.798 25.3265 158.383 25.6283 158.046 26.0068C157.708 26.3751 157.452 26.815 157.278 27.3265C157.105 27.8277 157.018 28.3955 157.018 29.0297V37.5H152.813ZM172.618 37.9603C170.951 37.9603 169.488 37.587 168.23 36.8402C166.972 36.0934 165.989 35.0653 165.284 33.7559C164.588 32.4363 164.24 30.9222 164.24 29.2139C164.24 27.485 164.598 25.9659 165.314 24.6565C166.03 23.3369 167.018 22.3088 168.276 21.5722C169.534 20.8357 170.982 20.4674 172.618 20.4674C174.286 20.4674 175.749 20.8408 177.007 21.5876C178.275 22.3343 179.263 23.3675 179.968 24.6872C180.674 25.9966 181.027 27.5055 181.027 29.2139C181.027 30.9325 180.669 32.4516 179.953 33.7712C179.247 35.0807 178.26 36.1087 176.992 36.8555C175.733 37.5921 174.276 37.9603 172.618 37.9603ZM172.618 34.0628C173.958 34.0628 174.956 33.6127 175.611 32.7125C176.276 31.802 176.608 30.6358 176.608 29.2139C176.608 27.7408 176.27 26.5644 175.595 25.6846C174.93 24.8048 173.938 24.3649 172.618 24.3649C171.708 24.3649 170.961 24.5695 170.378 24.9787C169.795 25.3879 169.36 25.9557 169.074 26.682C168.798 27.4083 168.659 28.2523 168.659 29.2139C168.659 30.6972 168.992 31.8787 169.657 32.7585C170.332 33.628 171.319 34.0628 172.618 34.0628ZM187.332 37.5L182.268 20.897L186.349 20.9277L189.357 30.8097L192.411 20.9277H195.879L198.932 30.8097L201.94 20.9277H206.021L200.958 37.5H197.766L194.145 26.6973L190.523 37.5H187.332ZM218.741 37.5C217.595 37.7148 216.47 37.8069 215.365 37.7762C214.27 37.7557 213.288 37.5665 212.419 37.2085C211.559 36.8402 210.905 36.252 210.455 35.4438C210.045 34.6868 209.831 33.9196 209.81 33.1421C209.79 32.3544 209.779 31.4644 209.779 30.4721V16.3243H213.953V30.2266C213.953 30.8711 213.958 31.4542 213.968 31.9759C213.989 32.4874 214.096 32.8966 214.291 33.2035C214.659 33.7866 215.247 34.1037 216.055 34.1549C216.864 34.206 217.759 34.1651 218.741 34.0321V37.5ZM206.956 24.1501V20.9277H218.741V24.1501H206.956ZM233.727 37.5V29.6742C233.727 29.2957 233.707 28.8149 233.666 28.2318C233.625 27.6385 233.497 27.0452 233.282 26.4518C233.068 25.8585 232.715 25.3624 232.224 24.9634C231.743 24.5644 231.057 24.3649 230.167 24.3649C229.809 24.3649 229.426 24.4212 229.017 24.5337C228.607 24.6463 228.224 24.8662 227.866 25.1936C227.508 25.5107 227.211 25.9813 226.976 26.6053C226.751 27.2293 226.638 28.0579 226.638 29.0911L224.244 27.9556C224.244 26.6462 224.51 25.4186 225.042 24.2729C225.574 23.1271 226.372 22.2013 227.436 21.4955C228.51 20.7896 229.861 20.4367 231.487 20.4367C232.786 20.4367 233.845 20.6566 234.663 21.0965C235.482 21.5364 236.116 22.0939 236.566 22.7691C237.027 23.4443 237.354 24.1501 237.548 24.8867C237.743 25.613 237.86 26.2779 237.901 26.8815C237.942 27.485 237.963 27.9249 237.963 28.2011V37.5H233.727ZM222.403 37.5V15.4036H226.116V26.7587H226.638V37.5H222.403Z" fill="white"/>
</svg>
