<svg width="240" height="52" viewBox="0 0 240 52" fill="none" xmlns="http://www.w3.org/2000/svg">
<path fill-rule="evenodd" clip-rule="evenodd" d="M36.5577 7.32773C38.7916 7.32773 40.6011 9.13855 40.6011 11.3712C40.6011 13.6039 38.7903 15.4147 36.5577 15.4147C34.325 15.4147 32.5142 13.6039 32.5142 11.3712C32.5142 9.13855 34.325 7.32773 36.5577 7.32773Z" fill="#023468"/>
<path fill-rule="evenodd" clip-rule="evenodd" d="M47.6581 17.2608C31.7813 21.7929 22.6441 35.3803 34.4144 52.0001C15.8352 35.9936 14.8593 15.513 34.0883 9.15527e-05C30.0989 6.37322 27.627 14.0283 29.4844 16.3617C32.698 20.3989 43.0983 17.0719 47.6581 17.2621V17.2608Z" fill="#023468"/>
<path fill-rule="evenodd" clip-rule="evenodd" d="M44.3739 33.1099H31.3065C32.805 27.2505 37.7691 22.6895 46.1986 19.423C47.0914 20.0677 47.551 20.9391 47.5762 22.0372V29.9076C47.5712 31.6743 46.1406 33.1049 44.3739 33.1099Z" fill="#00999A"/>
<path fill-rule="evenodd" clip-rule="evenodd" d="M29.0159 2.45817C28.6205 2.28187 28.1823 2.18491 27.7239 2.18491H19.8535C18.0918 2.18491 16.6512 3.6255 16.6512 5.38721V18.8349H3.20231C1.4406 18.8349 0 20.2755 0 22.0372V29.9076C0 31.6693 1.4406 33.1099 3.20231 33.1099H16.6512V46.5588C16.6512 48.3205 18.0918 49.7611 19.8535 49.7611H27.7239C28.205 49.7611 28.6633 49.6528 29.0739 49.4602C22.9601 43.2973 18.2795 34.4749 18.2795 26.2179C18.2795 17.0921 22.2159 8.44596 29.0159 2.45817Z" fill="#00999A"/>
<path d="M56.7115 37.5001V15.4037H60.4556L67.7597 30.0733L75.0637 15.4037H78.8078V37.5001H74.9103V24.3037L68.4962 37.5001H67.0231L60.609 24.3037V37.5001H56.7115ZM90.8182 37.9604C89.12 37.9604 87.6214 37.5973 86.3222 36.871C85.0332 36.1344 84.0205 35.1268 83.2839 33.8481C82.5576 32.5591 82.1945 31.086 82.1945 29.4288C82.1945 27.6181 82.5525 26.0427 83.2686 24.7026C83.9847 23.3625 84.9719 22.3242 86.2301 21.5876C87.4884 20.8409 88.9359 20.4675 90.5727 20.4675C92.3117 20.4675 93.7899 20.8767 95.0073 21.6951C96.2246 22.5134 97.1248 23.6643 97.7079 25.1476C98.291 26.6309 98.4956 28.3751 98.3217 30.3802H94.194V28.8457C94.194 27.1578 93.9229 25.9455 93.3807 25.209C92.8488 24.4622 91.9741 24.0888 90.7568 24.0888C89.3349 24.0888 88.2863 24.5236 87.6111 25.3931C86.9462 26.2524 86.6137 27.526 86.6137 29.214C86.6137 30.7587 86.9462 31.9555 87.6111 32.8046C88.2863 33.6435 89.2735 34.0629 90.5727 34.0629C91.391 34.0629 92.0918 33.8839 92.6749 33.5258C93.258 33.1678 93.703 32.6512 94.0099 31.976L98.1836 33.1729C97.5596 34.6869 96.5724 35.8633 95.2221 36.7022C93.882 37.541 92.414 37.9604 90.8182 37.9604ZM85.3248 30.3802V27.2805H96.3116V30.3802H85.3248ZM108.507 37.9604C106.983 37.9604 105.648 37.5768 104.503 36.8096C103.357 36.0423 102.462 34.9989 101.817 33.6793C101.183 32.3596 100.866 30.8712 100.866 29.214C100.866 27.526 101.188 26.0274 101.833 24.718C102.487 23.3983 103.403 22.36 104.579 21.603C105.756 20.846 107.137 20.4675 108.722 20.4675C110.298 20.4675 111.622 20.8511 112.697 21.6183C113.771 22.3856 114.584 23.429 115.136 24.7487C115.689 26.0683 115.965 27.5567 115.965 29.214C115.965 30.8712 115.684 32.3596 115.121 33.6793C114.569 34.9989 113.74 36.0423 112.635 36.8096C111.53 37.5768 110.154 37.9604 108.507 37.9604ZM109.183 34.247C110.114 34.247 110.855 34.0373 111.408 33.6179C111.97 33.1985 112.374 32.6103 112.62 31.8532C112.865 31.0962 112.988 30.2165 112.988 29.214C112.988 28.2114 112.865 27.3317 112.62 26.5747C112.374 25.8177 111.981 25.2295 111.438 24.81C110.906 24.3906 110.206 24.1809 109.336 24.1809C108.405 24.1809 107.638 24.4111 107.034 24.8714C106.441 25.3215 106.001 25.9302 105.715 26.6974C105.428 27.4544 105.285 28.2933 105.285 29.214C105.285 30.1449 105.423 30.9939 105.699 31.7612C105.976 32.5182 106.4 33.1217 106.973 33.5719C107.546 34.022 108.282 34.247 109.183 34.247ZM112.988 37.5001V26.145H112.466V15.4037H116.671V37.5001H112.988ZM121.274 18.6261V14.9434H125.448V18.6261H121.274ZM121.274 37.5001V20.9278H125.448V37.5001H121.274ZM139.255 37.9604C137.864 37.9604 136.539 37.7149 135.281 37.2239C134.023 36.7226 132.908 35.9861 131.936 35.0143C130.974 34.0424 130.212 32.8404 129.649 31.4083C129.097 29.9761 128.821 28.324 128.821 26.4519C128.821 24.007 129.286 21.9303 130.217 20.222C131.158 18.5034 132.417 17.194 133.992 16.2937C135.578 15.3935 137.332 14.9434 139.255 14.9434C142.099 14.9434 144.334 15.6032 145.961 16.9229C147.587 18.2425 148.677 20.1094 149.229 22.5237L144.963 23.1375C144.564 21.8485 143.91 20.8204 142.999 20.0532C142.099 19.2757 140.943 18.8819 139.531 18.8716C138.13 18.8512 136.964 19.153 136.033 19.777C135.102 20.401 134.401 21.2859 133.931 22.4316C133.47 23.5773 133.24 24.9174 133.24 26.4519C133.24 27.9864 133.47 29.3163 133.931 30.4415C134.401 31.5668 135.102 32.4415 136.033 33.0655C136.964 33.6895 138.13 34.0117 139.531 34.0322C140.483 34.0527 141.342 33.889 142.109 33.5412C142.887 33.1933 143.541 32.6461 144.073 31.8993C144.605 31.1525 144.984 30.196 145.209 29.0298H141.71V25.8074H149.659C149.679 25.9404 149.695 26.1757 149.705 26.5133C149.715 26.8509 149.72 27.0452 149.72 27.0964C149.72 29.214 149.291 31.0911 148.431 32.7279C147.572 34.3647 146.36 35.6485 144.795 36.5794C143.229 37.5001 141.383 37.9604 139.255 37.9604ZM152.796 37.5001V20.9278H156.478V24.9788L156.079 24.4571C156.294 23.8842 156.581 23.3625 156.939 22.8919C157.297 22.4214 157.737 22.0326 158.258 21.7258C158.657 21.4802 159.092 21.291 159.563 21.158C160.033 21.0148 160.519 20.9278 161.02 20.8971C161.522 20.8562 162.023 20.8664 162.524 20.9278V24.8254C162.064 24.6822 161.527 24.6361 160.913 24.6873C160.309 24.7282 159.762 24.8663 159.271 25.1016C158.78 25.3266 158.366 25.6284 158.028 26.0069C157.691 26.3752 157.435 26.8151 157.261 27.3266C157.087 27.8278 157 28.3956 157 29.0298V37.5001H152.796ZM172.601 37.9604C170.933 37.9604 169.47 37.587 168.212 36.8403C166.954 36.0935 165.972 35.0654 165.266 33.756C164.57 32.4363 164.223 30.9223 164.223 29.214C164.223 27.4851 164.581 25.966 165.297 24.6566C166.013 23.3369 167 22.3088 168.258 21.5723C169.517 20.8358 170.964 20.4675 172.601 20.4675C174.268 20.4675 175.731 20.8409 176.989 21.5876C178.258 22.3344 179.245 23.3676 179.951 24.6873C180.657 25.9967 181.01 27.5056 181.01 29.214C181.01 30.9326 180.652 32.4517 179.936 33.7713C179.23 35.0807 178.243 36.1088 176.974 36.8556C175.716 37.5922 174.258 37.9604 172.601 37.9604ZM172.601 34.0629C173.941 34.0629 174.938 33.6128 175.593 32.7125C176.258 31.8021 176.59 30.6359 176.59 29.214C176.59 27.7409 176.253 26.5644 175.578 25.6847C174.913 24.8049 173.92 24.365 172.601 24.365C171.69 24.365 170.944 24.5696 170.36 24.9788C169.777 25.388 169.343 25.9558 169.056 26.6821C168.78 27.4084 168.642 28.2524 168.642 29.214C168.642 30.6973 168.974 31.8788 169.639 32.7586C170.314 33.6281 171.302 34.0629 172.601 34.0629ZM187.314 37.5001L182.25 20.8971L186.332 20.9278L189.339 30.8098L192.393 20.9278H195.861L198.915 30.8098L201.922 20.9278H206.004L200.94 37.5001H197.748L194.127 26.6974L190.506 37.5001H187.314ZM218.723 37.5001C217.577 37.7149 216.452 37.807 215.347 37.7763C214.253 37.7558 213.271 37.5666 212.401 37.2085C211.542 36.8403 210.887 36.2521 210.437 35.4439C210.028 34.6869 209.813 33.9197 209.793 33.1422C209.772 32.3545 209.762 31.4645 209.762 30.4722V16.3244H213.936V30.2267C213.936 30.8712 213.941 31.4543 213.951 31.976C213.971 32.4875 214.079 32.8967 214.273 33.2036C214.641 33.7867 215.23 34.1038 216.038 34.1549C216.846 34.2061 217.741 34.1652 218.723 34.0322V37.5001ZM206.938 24.1502V20.9278H218.723V24.1502H206.938ZM233.71 37.5001V29.6743C233.71 29.2958 233.689 28.815 233.648 28.2319C233.608 27.6386 233.48 27.0452 233.265 26.4519C233.05 25.8586 232.697 25.3624 232.206 24.9635C231.725 24.5645 231.04 24.365 230.15 24.365C229.792 24.365 229.408 24.4213 228.999 24.5338C228.59 24.6464 228.206 24.8663 227.848 25.1937C227.49 25.5108 227.193 25.9813 226.958 26.6054C226.733 27.2294 226.621 28.058 226.621 29.0912L224.227 27.9557C224.227 26.6463 224.493 25.4187 225.025 24.273C225.557 23.1272 226.355 22.2014 227.419 21.4956C228.493 20.7897 229.843 20.4368 231.47 20.4368C232.769 20.4368 233.827 20.6567 234.646 21.0966C235.464 21.5365 236.098 22.094 236.549 22.7692C237.009 23.4444 237.336 24.1502 237.531 24.8868C237.725 25.6131 237.843 26.278 237.884 26.8816C237.925 27.4851 237.945 27.925 237.945 28.2012V37.5001H233.71ZM222.385 37.5001V15.4037H226.099V26.7588H226.621V37.5001H222.385Z" fill="#023468"/>
</svg>
